<svg width="45" height="50" viewBox="0 0 45 50" fill="none" xmlns="http://www.w3.org/2000/svg">
<path d="M4.39453 8C3.90911 8 3.51562 8.39349 3.51562 8.87891V9.75781C3.51562 10.2432 3.90911 10.6367 4.39453 10.6367C4.87995 10.6367 5.27344 10.2432 5.27344 9.75781V8.87891C5.27344 8.39349 4.87995 8 4.39453 8Z" fill="black"/>
<path d="M4.39453 14.1523C3.90911 14.1523 3.51562 14.5458 3.51562 15.0312V15.9102C3.51562 16.3956 3.90911 16.7891 4.39453 16.7891C4.87995 16.7891 5.27344 16.3956 5.27344 15.9102V15.0312C5.27344 14.5458 4.87995 14.1523 4.39453 14.1523Z" fill="black"/>
<path d="M7.91016 11.5156H7.03125C6.54583 11.5156 6.15234 11.9091 6.15234 12.3945C6.15234 12.88 6.54583 13.2734 7.03125 13.2734H7.91016C8.39558 13.2734 8.78906 12.88 8.78906 12.3945C8.78906 11.9091 8.39558 11.5156 7.91016 11.5156V11.5156Z" fill="black"/>
<path d="M0.878906 13.2734H1.75781C2.24323 13.2734 2.63672 12.88 2.63672 12.3945C2.63672 11.9091 2.24323 11.5156 1.75781 11.5156H0.878906C0.393486 11.5156 0 11.9091 0 12.3945C0 12.88 0.393486 13.2734 0.878906 13.2734Z" fill="black"/>
<path d="M44.6151 12.1766C44.3944 12.0106 44.1086 11.958 43.8433 12.0343L34.6668 14.6788C34.2904 14.7873 34.0313 15.1316 34.0313 15.5234V26.703C33.2962 26.15 32.3831 25.8217 31.3945 25.8217C28.9714 25.8217 27 27.7931 27 30.2162C27 32.6394 28.9714 34.6107 31.3945 34.6107C33.8177 34.6107 35.7891 32.6394 35.7891 30.2162V21.1257L44.33 18.6643C44.7064 18.5559 44.9655 18.2115 44.9655 17.8198V12.8788C44.9655 12.6027 44.8357 12.3426 44.6151 12.1766V12.1766ZM31.3945 32.8529C29.9406 32.8529 28.7578 31.6701 28.7578 30.2162C28.7578 28.7623 29.9406 27.5795 31.3945 27.5795C32.8484 27.5795 34.0313 28.7623 34.0313 30.2162C34.0313 31.6701 32.8484 32.8529 31.3945 32.8529ZM43.2077 17.1584L35.7891 19.2963V16.1847L43.2077 14.0468V17.1584Z" fill="black"/>
<path d="M13.8789 29.7578C14.1101 29.7578 14.3368 29.6638 14.5003 29.5003C14.6638 29.3368 14.7578 29.1101 14.7578 28.8789C14.7578 28.6469 14.6638 28.421 14.5003 28.2566C14.3368 28.0932 14.1101 28 13.8789 28C13.6478 28 13.421 28.0932 13.2575 28.2566C13.094 28.421 13 28.6469 13 28.8789C13 29.1101 13.094 29.3368 13.2575 29.5003C13.421 29.6638 13.6478 29.7578 13.8789 29.7578Z" fill="black"/>
<path d="M20.5664 26C20.4828 26 20.4022 26.0124 20.3257 26.0342L17.8011 26.7531C17.3343 26.8862 17.0637 27.3725 17.1968 27.8393C17.3069 28.2257 17.6589 28.4775 18.0416 28.4775C18.1213 28.4775 18.2024 28.4665 18.2829 28.4436L19.6875 28.0434V31.1565L8.78906 34.2629V31.1499L10.6755 30.6121C11.1423 30.4791 11.4129 29.9928 11.2799 29.526C11.1468 29.0592 10.6607 28.7889 10.1937 28.9217L7.66925 29.6412C7.30107 29.7461 7.03125 30.0847 7.03125 30.4865V41.6661C6.29622 41.113 5.38313 40.7847 4.39453 40.7847C1.97139 40.7847 0 42.7561 0 45.1792C0 47.6024 1.97139 49.5738 4.39453 49.5738C6.81768 49.5738 8.78906 47.6024 8.78906 45.1792V36.0908L19.6875 32.9843V38.0585C18.9525 37.5055 18.0394 37.1772 17.0508 37.1772C14.6276 37.1772 12.6562 39.1486 12.6562 41.5718C12.6562 43.9949 14.6276 45.9663 17.0508 45.9663C19.4739 45.9663 21.4453 43.9949 21.4453 41.5718V26.8789C21.4453 26.3935 21.0518 26 20.5664 26ZM4.39453 47.8159C2.94064 47.8159 1.75781 46.6331 1.75781 45.1792C1.75781 43.7253 2.94064 42.5425 4.39453 42.5425C5.84842 42.5425 7.03125 43.7253 7.03125 45.1792C7.03125 46.6331 5.84842 47.8159 4.39453 47.8159ZM17.0508 44.2085C15.5969 44.2085 14.4141 43.0256 14.4141 41.5718C14.4141 40.1179 15.5969 38.935 17.0508 38.935C18.5047 38.935 19.6875 40.1179 19.6875 41.5718C19.6875 43.0256 18.5047 44.2085 17.0508 44.2085Z" fill="black"/>
<path d="M27.613 4.95237L23.3689 4.33564L21.4709 0.489903C21.3228 0.189932 21.0173 0 20.6828 0C20.3483 0 20.0427 0.189932 19.8947 0.489903L17.9967 4.33564L13.7526 4.95237C13.4215 5.00045 13.1465 5.23239 13.0431 5.55056C12.9396 5.86872 13.0259 6.218 13.2655 6.45152L16.3365 9.44508L15.6115 13.672C15.5549 14.0017 15.6904 14.335 15.9611 14.5317C16.2317 14.7282 16.5906 14.7542 16.8867 14.5985L20.6827 12.6028L24.4787 14.5985C24.6073 14.6661 24.7477 14.6994 24.8876 14.6994C25.0698 14.6994 25.2512 14.6428 25.4043 14.5316C25.675 14.335 25.8105 14.0017 25.7539 13.6719L25.0289 9.44499L28.0999 6.45143C28.3395 6.21791 28.4257 5.86863 28.3223 5.55047C28.219 5.2323 27.944 5.00045 27.613 4.95237V4.95237ZM23.4712 8.50878C23.264 8.71066 23.1695 9.00158 23.2184 9.2867L23.7205 12.2138L21.0917 10.8318C20.8357 10.6972 20.5299 10.6972 20.2737 10.8318L17.645 12.2138L18.1471 9.2867C18.196 9.00158 18.1014 8.71066 17.8943 8.50878L15.7677 6.43579L18.7066 6.00873C18.9929 5.96716 19.2404 5.78733 19.3684 5.52797L20.6828 2.8648L21.9971 5.52797C22.1252 5.78733 22.3726 5.96716 22.6588 6.00873L25.5978 6.43579L23.4712 8.50878Z" fill="black"/>
</svg>
